<mxfile host="app.diagrams.net" modified="2023-04-15T19:09:49.193Z" agent="Mozilla/5.0 (Macintosh; Intel Mac OS X 10_15_7) AppleWebKit/605.1.15 (KHTML, like Gecko) Version/16.3 Safari/605.1.15" etag="fATX3ed4N1XbuWWeAOOm" version="21.1.8" type="github">
  <diagram name="ページ1" id="3vfZcQ0hZBjZ4wAh1Pqn">
    <mxGraphModel dx="1021" dy="461" grid="1" gridSize="10" guides="1" tooltips="1" connect="1" arrows="1" fold="1" page="1" pageScale="1" pageWidth="827" pageHeight="1169" math="0" shadow="0">
      <root>
        <mxCell id="0" />
        <mxCell id="1" parent="0" />
        <mxCell id="9W9zztfB6vi03vOOfNYg-4" value="" style="edgeStyle=orthogonalEdgeStyle;rounded=0;orthogonalLoop=1;jettySize=auto;html=1;" parent="1" source="9W9zztfB6vi03vOOfNYg-2" target="9W9zztfB6vi03vOOfNYg-3" edge="1">
          <mxGeometry relative="1" as="geometry" />
        </mxCell>
        <mxCell id="9W9zztfB6vi03vOOfNYg-2" value="REST API" style="ellipse;shape=cloud;whiteSpace=wrap;html=1;" parent="1" vertex="1">
          <mxGeometry x="270" y="120" width="120" height="80" as="geometry" />
        </mxCell>
        <mxCell id="9W9zztfB6vi03vOOfNYg-3" value="SQL" style="shape=cylinder3;whiteSpace=wrap;html=1;boundedLbl=1;backgroundOutline=1;size=15;" parent="1" vertex="1">
          <mxGeometry x="287" y="10" width="86" height="80" as="geometry" />
        </mxCell>
        <mxCell id="9W9zztfB6vi03vOOfNYg-6" value="DUT" style="shape=cube;whiteSpace=wrap;html=1;boundedLbl=1;backgroundOutline=1;darkOpacity=0.05;darkOpacity2=0.1;" parent="1" vertex="1">
          <mxGeometry x="60" y="520" width="120" height="80" as="geometry" />
        </mxCell>
        <mxCell id="9W9zztfB6vi03vOOfNYg-19" style="edgeStyle=orthogonalEdgeStyle;rounded=0;orthogonalLoop=1;jettySize=auto;html=1;entryX=0.167;entryY=0;entryDx=0;entryDy=0;entryPerimeter=0;exitX=0.25;exitY=1;exitDx=0;exitDy=0;" parent="1" source="9W9zztfB6vi03vOOfNYg-11" target="9W9zztfB6vi03vOOfNYg-17" edge="1">
          <mxGeometry relative="1" as="geometry" />
        </mxCell>
        <mxCell id="9W9zztfB6vi03vOOfNYg-21" value="send protocol" style="edgeLabel;html=1;align=center;verticalAlign=middle;resizable=0;points=[];" parent="9W9zztfB6vi03vOOfNYg-19" vertex="1" connectable="0">
          <mxGeometry x="-0.175" y="-1" relative="1" as="geometry">
            <mxPoint y="4" as="offset" />
          </mxGeometry>
        </mxCell>
        <mxCell id="9W9zztfB6vi03vOOfNYg-28" style="edgeStyle=orthogonalEdgeStyle;rounded=0;orthogonalLoop=1;jettySize=auto;html=1;" parent="1" source="9W9zztfB6vi03vOOfNYg-11" target="9W9zztfB6vi03vOOfNYg-27" edge="1">
          <mxGeometry relative="1" as="geometry" />
        </mxCell>
        <mxCell id="9W9zztfB6vi03vOOfNYg-37" style="edgeStyle=orthogonalEdgeStyle;rounded=0;orthogonalLoop=1;jettySize=auto;html=1;entryX=0;entryY=0;entryDx=0;entryDy=27.5;entryPerimeter=0;" parent="1" source="9W9zztfB6vi03vOOfNYg-11" target="9W9zztfB6vi03vOOfNYg-35" edge="1">
          <mxGeometry relative="1" as="geometry">
            <Array as="points">
              <mxPoint x="440" y="340" />
              <mxPoint x="440" y="438" />
            </Array>
          </mxGeometry>
        </mxCell>
        <mxCell id="9W9zztfB6vi03vOOfNYg-11" value="Harness" style="shape=process;whiteSpace=wrap;html=1;backgroundOutline=1;" parent="1" vertex="1">
          <mxGeometry x="270" y="300" width="120" height="60" as="geometry" />
        </mxCell>
        <mxCell id="9W9zztfB6vi03vOOfNYg-16" style="edgeStyle=orthogonalEdgeStyle;rounded=0;orthogonalLoop=1;jettySize=auto;html=1;entryX=0;entryY=0.5;entryDx=0;entryDy=0;" parent="1" source="9W9zztfB6vi03vOOfNYg-13" target="9W9zztfB6vi03vOOfNYg-11" edge="1">
          <mxGeometry relative="1" as="geometry" />
        </mxCell>
        <mxCell id="9W9zztfB6vi03vOOfNYg-24" value="@ Runtime" style="edgeLabel;html=1;align=center;verticalAlign=middle;resizable=0;points=[];" parent="9W9zztfB6vi03vOOfNYg-16" vertex="1" connectable="0">
          <mxGeometry x="-0.0667" y="-3" relative="1" as="geometry">
            <mxPoint x="-2" y="-3" as="offset" />
          </mxGeometry>
        </mxCell>
        <mxCell id="9W9zztfB6vi03vOOfNYg-13" value="Sequence&lt;br&gt;Repository" style="shape=process;whiteSpace=wrap;html=1;backgroundOutline=1;" parent="1" vertex="1">
          <mxGeometry x="60" y="300" width="120" height="60" as="geometry" />
        </mxCell>
        <mxCell id="9W9zztfB6vi03vOOfNYg-18" style="edgeStyle=orthogonalEdgeStyle;rounded=0;orthogonalLoop=1;jettySize=auto;html=1;startArrow=classic;startFill=1;" parent="1" source="9W9zztfB6vi03vOOfNYg-17" target="9W9zztfB6vi03vOOfNYg-6" edge="1">
          <mxGeometry relative="1" as="geometry" />
        </mxCell>
        <mxCell id="9W9zztfB6vi03vOOfNYg-22" style="edgeStyle=orthogonalEdgeStyle;rounded=0;orthogonalLoop=1;jettySize=auto;html=1;entryX=0.75;entryY=1;entryDx=0;entryDy=0;exitX=0.667;exitY=0.013;exitDx=0;exitDy=0;exitPerimeter=0;" parent="1" source="9W9zztfB6vi03vOOfNYg-17" target="9W9zztfB6vi03vOOfNYg-11" edge="1">
          <mxGeometry relative="1" as="geometry" />
        </mxCell>
        <mxCell id="9W9zztfB6vi03vOOfNYg-23" value="uplink" style="edgeLabel;html=1;align=center;verticalAlign=middle;resizable=0;points=[];" parent="9W9zztfB6vi03vOOfNYg-22" vertex="1" connectable="0">
          <mxGeometry x="0.1555" y="2" relative="1" as="geometry">
            <mxPoint as="offset" />
          </mxGeometry>
        </mxCell>
        <mxCell id="9W9zztfB6vi03vOOfNYg-36" style="edgeStyle=orthogonalEdgeStyle;rounded=0;orthogonalLoop=1;jettySize=auto;html=1;" parent="1" source="9W9zztfB6vi03vOOfNYg-17" target="9W9zztfB6vi03vOOfNYg-35" edge="1">
          <mxGeometry relative="1" as="geometry">
            <Array as="points">
              <mxPoint x="440" y="560" />
              <mxPoint x="440" y="450" />
            </Array>
          </mxGeometry>
        </mxCell>
        <mxCell id="9W9zztfB6vi03vOOfNYg-17" value="Raptor" style="shape=cube;whiteSpace=wrap;html=1;boundedLbl=1;backgroundOutline=1;darkOpacity=0.05;darkOpacity2=0.1;" parent="1" vertex="1">
          <mxGeometry x="280" y="520" width="120" height="80" as="geometry" />
        </mxCell>
        <mxCell id="9W9zztfB6vi03vOOfNYg-50" style="edgeStyle=orthogonalEdgeStyle;rounded=0;orthogonalLoop=1;jettySize=auto;html=1;entryX=0.8;entryY=0.8;entryDx=0;entryDy=0;entryPerimeter=0;" parent="1" source="9W9zztfB6vi03vOOfNYg-27" target="9W9zztfB6vi03vOOfNYg-46" edge="1">
          <mxGeometry relative="1" as="geometry" />
        </mxCell>
        <mxCell id="9W9zztfB6vi03vOOfNYg-27" value="Time Series" style="shape=cylinder3;whiteSpace=wrap;html=1;boundedLbl=1;backgroundOutline=1;size=15;" parent="1" vertex="1">
          <mxGeometry x="500" y="290" width="86" height="80" as="geometry" />
        </mxCell>
        <mxCell id="9W9zztfB6vi03vOOfNYg-33" value="{1..N}" style="text;html=1;align=center;verticalAlign=middle;resizable=0;points=[];autosize=1;strokeColor=none;fillColor=none;" parent="1" vertex="1">
          <mxGeometry x="305" y="490" width="50" height="30" as="geometry" />
        </mxCell>
        <mxCell id="9W9zztfB6vi03vOOfNYg-34" value="{1}" style="text;html=1;align=center;verticalAlign=middle;resizable=0;points=[];autosize=1;strokeColor=none;fillColor=none;" parent="1" vertex="1">
          <mxGeometry x="310" y="360" width="40" height="30" as="geometry" />
        </mxCell>
        <mxCell id="9W9zztfB6vi03vOOfNYg-35" value="Loki" style="shape=cylinder3;whiteSpace=wrap;html=1;boundedLbl=1;backgroundOutline=1;size=15;" parent="1" vertex="1">
          <mxGeometry x="490" y="410" width="86" height="80" as="geometry" />
        </mxCell>
        <mxCell id="9W9zztfB6vi03vOOfNYg-38" value="{1}" style="text;html=1;align=center;verticalAlign=middle;resizable=0;points=[];autosize=1;strokeColor=none;fillColor=none;" parent="1" vertex="1">
          <mxGeometry x="180" y="520" width="40" height="30" as="geometry" />
        </mxCell>
        <mxCell id="9W9zztfB6vi03vOOfNYg-39" value="{1}" style="text;html=1;align=center;verticalAlign=middle;resizable=0;points=[];autosize=1;strokeColor=none;fillColor=none;" parent="1" vertex="1">
          <mxGeometry x="240" y="520" width="40" height="30" as="geometry" />
        </mxCell>
        <mxCell id="9W9zztfB6vi03vOOfNYg-45" style="edgeStyle=orthogonalEdgeStyle;rounded=0;orthogonalLoop=1;jettySize=auto;html=1;" parent="1" source="9W9zztfB6vi03vOOfNYg-43" target="9W9zztfB6vi03vOOfNYg-13" edge="1">
          <mxGeometry relative="1" as="geometry" />
        </mxCell>
        <mxCell id="9W9zztfB6vi03vOOfNYg-43" value="Sequence.py" style="shape=document;whiteSpace=wrap;html=1;boundedLbl=1;" parent="1" vertex="1">
          <mxGeometry x="5" y="50" width="230" height="190" as="geometry" />
        </mxCell>
        <mxCell id="9W9zztfB6vi03vOOfNYg-42" value="&lt;h1&gt;Use Case&lt;/h1&gt;&lt;p&gt;1. Develop sequence.py file, type, iteration and author are described at top of module&lt;/p&gt;&lt;p&gt;2. Push to sequence repository&lt;/p&gt;&lt;p&gt;3. Test harness syncs its sequences from git&lt;/p&gt;&lt;p&gt;4. Head to API (swagger) issue a post request /sequence/stage to stage the sequence into the harness. Must provide sequence name as part of staging request. Response is sequence id&lt;/p&gt;&lt;p&gt;5. issue a post request to start the sequence by sequence id&lt;/p&gt;&lt;p&gt;6. User visits Grafana dashboard to view monitoring results&lt;/p&gt;&lt;p&gt;7. User can see temperature data across all thermistors&lt;/p&gt;&lt;p&gt;8. User can see high frequency data: thrust/torque/voltage/current/accelerometer over time through influx db plugin&lt;/p&gt;&lt;p&gt;9. User can optionally export data to CSV and perform analysis on the side or take a screen capture of the graphs&lt;/p&gt;&lt;p&gt;10. Telemetry data is grouped by sequence id for later reference. NAS hosted storage&lt;/p&gt;" style="text;html=1;strokeColor=none;fillColor=none;spacing=5;spacingTop=-20;whiteSpace=wrap;overflow=hidden;rounded=0;" parent="1" vertex="1">
          <mxGeometry x="620" y="20" width="480" height="420" as="geometry" />
        </mxCell>
        <mxCell id="9W9zztfB6vi03vOOfNYg-14" value="fusion lib" style="shape=document;whiteSpace=wrap;html=1;boundedLbl=1;" parent="1" vertex="1">
          <mxGeometry x="20" y="150" width="120" height="80" as="geometry" />
        </mxCell>
        <mxCell id="9W9zztfB6vi03vOOfNYg-47" style="edgeStyle=orthogonalEdgeStyle;rounded=0;orthogonalLoop=1;jettySize=auto;html=1;" parent="1" source="9W9zztfB6vi03vOOfNYg-46" target="9W9zztfB6vi03vOOfNYg-11" edge="1">
          <mxGeometry relative="1" as="geometry">
            <Array as="points">
              <mxPoint x="470" y="260" />
              <mxPoint x="330" y="260" />
            </Array>
          </mxGeometry>
        </mxCell>
        <mxCell id="9W9zztfB6vi03vOOfNYg-46" value="Grafana" style="ellipse;shape=cloud;whiteSpace=wrap;html=1;" parent="1" vertex="1">
          <mxGeometry x="450" y="120" width="120" height="80" as="geometry" />
        </mxCell>
        <mxCell id="9W9zztfB6vi03vOOfNYg-51" value="" style="shape=cylinder3;whiteSpace=wrap;html=1;boundedLbl=1;backgroundOutline=1;size=32;" parent="1" vertex="1">
          <mxGeometry x="264" y="740" width="716" height="320" as="geometry" />
        </mxCell>
        <mxCell id="9W9zztfB6vi03vOOfNYg-53" value="1" style="shape=cylinder3;whiteSpace=wrap;html=1;boundedLbl=1;backgroundOutline=1;size=15;" parent="1" vertex="1">
          <mxGeometry x="288" y="880" width="140" height="140" as="geometry" />
        </mxCell>
        <mxCell id="9W9zztfB6vi03vOOfNYg-52" value="2" style="shape=cylinder3;whiteSpace=wrap;html=1;boundedLbl=1;backgroundOutline=1;size=15;" parent="1" vertex="1">
          <mxGeometry x="446" y="890" width="140" height="140" as="geometry" />
        </mxCell>
        <mxCell id="9W9zztfB6vi03vOOfNYg-54" value="" style="shape=note;whiteSpace=wrap;html=1;backgroundOutline=1;darkOpacity=0.05;size=10;" parent="1" vertex="1">
          <mxGeometry x="298" y="920" width="30" height="40" as="geometry" />
        </mxCell>
        <mxCell id="9W9zztfB6vi03vOOfNYg-55" value="" style="shape=note;whiteSpace=wrap;html=1;backgroundOutline=1;darkOpacity=0.05;size=10;" parent="1" vertex="1">
          <mxGeometry x="305" y="940" width="30" height="40" as="geometry" />
        </mxCell>
        <mxCell id="9W9zztfB6vi03vOOfNYg-56" value="" style="shape=note;whiteSpace=wrap;html=1;backgroundOutline=1;darkOpacity=0.05;size=10;" parent="1" vertex="1">
          <mxGeometry x="312" y="960" width="30" height="40" as="geometry" />
        </mxCell>
      </root>
    </mxGraphModel>
  </diagram>
</mxfile>
